<svg t="1689129337772" class="icon" viewBox="0 0 1024 1024" version="1.1" xmlns="http://www.w3.org/2000/svg" p-id="2427"
    width="200" height="200">
    <path
        d="M868.629333 277.111467v-54.485334-0.157866c0.093867-23.466667 14.4512-42.410667 37.917867-42.321067C930.133333 180.241067 938.666667 199.048533 938.666667 222.634667v161.787733c0.0256 18.658133-15.957333 32.6912-34.624 32.6656-15.940267 2.286933-27.895467 0.055467-35.8656-6.698667-10.670933-9.053867-26.683733-30.528-48.029867-64.426666C761.105067 243.9936 638.306133 156.292267 512 156.292267c-188.539733 0-355.554133 165.888-355.554133 354.402133s167.074133 356.8384 355.6096 356.8384c159.069867 0 302.8608-127.726933 340.757333-274.944h0.0384c0-23.5648 17.783467-41.198933 41.352533-41.198933s36.010667 22.3744 36.010667 45.9392c-39.509333 194.752-211.712 341.333333-418.158933 341.333333C276.381867 938.666667 85.333333 747.639467 85.333333 512S276.381867 85.333333 512.055467 85.333333c139.541333 0 278.715733 88.234667 356.573866 191.778134z m25.365334 26.082133l-73.847467 42.760533 72.213333-45.469866c9.570133 15.202133 17.706667 27.264 24.2176 36.002133a148.590933 148.590933 0 0 0 6.839467 8.618667c0.571733 0.6528 0.989867 1.1008 1.216 1.3312a21.4912 21.4912 0 0 0-1.271467-1.143467c-7.808-6.621867-16.494933-10.538667-24.5632-12.049067a33.352533 33.352533 0 0 0-6.1312-0.622933c-0.669867 0-0.9088 0.017067-0.750933 0l6.088533-0.878933 6.148267 0.008533c-26.653867-0.034133-50.7776 22.186667-50.820267 52.514133l14.848-107.153066c15.1296 18.619733 13.930667 5.559467 25.813334 26.082133z"
        fill="#007BFF" p-id="2428"></path>
    <path
        d="M533.333333 490.666667h117.333334a32 32 0 1 1 0 64h-149.333334a32 32 0 0 1-32-32v-149.333334a32 32 0 0 1 64 0V490.666667z"
        fill="#007BFF" p-id="2429"></path>
</svg>