<svg t="1688474488258" class="icon" viewBox="0 0 1024 1024" version="1.1" xmlns="http://www.w3.org/2000/svg" p-id="2189" width="200" height="200"><path d="M384 981.333333a341.333333 341.333333 0 1 1 341.333333-341.333333 341.333333 341.333333 0 0 1-341.333333 341.333333z m0-597.333333a256 256 0 1 0 256 256 256 256 0 0 0-256-256zM938.666667 469.333333a42.666667 42.666667 0 0 1-42.666667-42.666666V153.6A25.6 25.6 0 0 0 870.4 128H597.333333a42.666667 42.666667 0 0 1 0-85.333333h273.066667A110.933333 110.933333 0 0 1 981.333333 153.6V426.666667a42.666667 42.666667 0 0 1-42.666666 42.666666z" fill="#007BFF" p-id="2190"></path><path d="M597.333333 469.333333a42.666667 42.666667 0 0 1-30.08-72.746666l298.666667-298.666667a42.666667 42.666667 0 0 1 60.16 60.16l-298.666667 298.666667A42.666667 42.666667 0 0 1 597.333333 469.333333z" fill="#007BFF" p-id="2191"></path></svg>