<svg t="1688484100387" class="icon" viewBox="0 0 1024 1024" version="1.1" xmlns="http://www.w3.org/2000/svg" p-id="4856" width="200" height="200"><path d="M758.52 584.91c-11.72-11.72-30.71-11.72-42.43 0l-42.43 42.43c-11.72 11.72-11.72 30.71 0 42.43 9.35 9.35 23.32 11.23 34.54 5.66-8.76 71.47-69.12 110.93-100.23 131.26-10.66 6.96-17.09 11.17-22.01 16.82-10.88 12.5-9.56 31.45 2.94 42.32a29.91 29.91 0 0 0 19.68 7.37c7.86 0 15.67-3.07 21.51-9.07 1.84-1.43 6.73-4.62 10.71-7.22 20.28-13.26 54.23-35.45 82.4-70.51 26.65-33.18 41.82-70.05 45.32-110.02 10.82 4.35 23.65 2.14 32.42-6.62 11.72-11.72 11.72-30.71 0-42.43l-42.42-42.42zM266.02 437.62c11.72 11.72 30.71 11.72 42.43 0l42.43-42.43c11.72-11.72 11.72-30.71 0-42.43-9.35-9.35-23.32-11.23-34.54-5.66 8.76-71.46 69.12-110.93 100.23-131.26 10.66-6.97 17.09-11.17 22.01-16.83 10.88-12.5 9.56-31.45-2.94-42.32-12.08-10.51-30.17-9.63-41.19 1.7-1.84 1.43-6.73 4.62-10.71 7.22-20.28 13.26-54.23 35.45-82.4 70.51-26.65 33.18-41.82 70.05-45.32 110.01-10.82-4.35-23.65-2.14-32.42 6.62-11.72 11.72-11.72 30.71 0 42.43l42.42 42.44zM836.07 97.85h-200c-49.63 0-90 40.37-90 90v200c0 49.63 40.37 90 90 90h200c49.63 0 90-40.37 90-90v-200c0-49.63-40.38-90-90-90z m30 290c0 16.54-13.46 30-30 30h-200c-16.54 0-30-13.46-30-30v-200c0-16.54 13.46-30 30-30h200c16.54 0 30 13.46 30 30v200zM390.37 543.54h-200c-49.63 0-90 40.37-90 90v200c0 49.63 40.37 90 90 90h200c49.63 0 90-40.37 90-90v-200c0-49.63-40.37-90-90-90z m30 290c0 16.54-13.46 30-30 30h-200c-16.54 0-30-13.46-30-30v-200c0-16.54 13.46-30 30-30h200c16.54 0 30 13.46 30 30v200z" fill="#F5F9FF" p-id="4857"></path></svg>