<svg t="1689148121163" class="icon" viewBox="0 0 1024 1024" version="1.1" xmlns="http://www.w3.org/2000/svg" p-id="7053"
    width="200" height="200">
    <path
        d="M800 992H0V416a96 96 0 0 1 96-96h128V128a96 96 0 0 1 96-96h384a96 96 0 0 1 96 96v416h128a96 96 0 0 1 96 96v352h-224zM224 384H96a32 32 0 0 0-32 32v512h160V384z m512 160V128a32 32 0 0 0-32-32H320a32 32 0 0 0-32 32v800h192v-96h-96v-64h256v64h-96v96h192V544z m224 96a32 32 0 0 0-32-32h-128v320h160v-288z m-64 96h-64v-64h64v64z m0 128h-64v-64h64v64z m-352-288h64v64h-64v-64z m0-128h64v64h-64v-64z m0-128h64v64h-64v-64z m0-128h64v64h-64V192z m-128 384h64v64h-64v-64z m0-128h64v64h-64v-64z m0-128h64v64h-64v-64z m0-128h64v64h-64V192zM192 544H128v-64h64v64z m0 128H128v-64h64v64z m0 128H128v-64h64v64z"
        fill="#007BFF" p-id="7054"></path>
</svg>