<svg t="1688474518313" class="icon" viewBox="0 0 1024 1024" version="1.1" xmlns="http://www.w3.org/2000/svg" p-id="2380"
    width="200" height="200">
    <path
        d="M512 682.666667a341.333333 341.333333 0 1 1 341.333333-341.333334 341.333333 341.333333 0 0 1-341.333333 341.333334z m0-597.333334a256 256 0 1 0 256 256A256 256 0 0 0 512 85.333333zM682.666667 853.333333H341.333333a42.666667 42.666667 0 0 1 0-85.333333h341.333334a42.666667 42.666667 0 0 1 0 85.333333z"
        fill="#007BFF" p-id="2381"></path>
    <path
        d="M512 1024a42.666667 42.666667 0 0 1-42.666667-42.666667V640a42.666667 42.666667 0 0 1 85.333334 0v341.333333a42.666667 42.666667 0 0 1-42.666667 42.666667z"
        fill="#007BFF" p-id="2382"></path>
</svg>