<svg t="1688525961079" class="icon" viewBox="0 0 1102 1024" version="1.1" xmlns="http://www.w3.org/2000/svg" p-id="4616"
    width="200" height="200">
    <path
        d="M414.917656 751.273447A375.540446 375.540446 0 0 1 59.892736 253.033616l20.554903-59.459586 221.614935 221.575558 152.271669-152.271669L232.719308 41.262984 292.218271 20.668703a375.540446 375.540446 0 0 1 485.127221 453.782962l233.900624 233.900624a177.23682 177.23682 0 0 1 0 250.675315l-12.994479 12.99448a177.23682 177.23682 0 0 1-250.675316 0l-233.900624-233.900625c-31.89554 8.662986-65.05115 13.112611-98.758041 13.112611zM118.131628 375.733001a296.786028 296.786028 0 0 0 393.772095 280.601994l23.232553-8.072327 268.158797 268.158796a98.443024 98.443024 0 0 0 139.237812 0l13.033856-13.073234a98.443024 98.443024 0 0 0 0-139.237812l-268.119419-268.158797 8.072328-23.232553a296.786028 296.786028 0 0 0-312.025007-392.078875l126.518974 126.518974a78.754419 78.754419 0 0 1 0 111.437503l-152.271669 152.232292a78.754419 78.754419 0 0 1-111.398126 0L119.785471 344.349365c-1.102562 10.356206-1.653843 20.869921-1.653843 31.423013z"
        fill="#007BFF" p-id="4617"></path>
</svg>