<svg t="1689061406783" class="icon" viewBox="0 0 1024 1024" version="1.1" xmlns="http://www.w3.org/2000/svg"
    p-id="11398" width="200" height="200">
    <path
        d="M596.992 596.992c-4.096-2.56-9.216-3.072-13.824-2.048-4.608 1.024-8.704 4.096-11.264 8.192-7.168 12.288-22.016 19.968-37.888 20.992-10.752 0.512-30.72-1.536-47.616-23.04-6.144-8.192-17.408-9.216-25.6-3.072-4.096 3.072-6.144 7.168-6.656 12.288-0.512 5.12 0.512 9.728 3.584 13.312 18.432 23.552 45.056 36.864 73.216 36.864h5.632c27.648-1.536 53.248-16.384 67.072-38.912 4.608-8.192 1.536-19.456-6.656-24.576zM470.528 487.936c0-12.288-6.656-24.064-17.408-30.208-10.752-6.144-24.064-6.144-34.816 0-10.752 6.144-17.408 17.92-17.408 30.208 0 12.288 6.656 24.064 17.408 30.208 5.632 3.072 11.264 4.608 17.408 4.608 6.144 0 11.776-1.536 17.408-4.608 10.752-6.656 17.408-17.92 17.408-30.208zM644.096 460.288c-10.752-6.144-24.064-6.144-34.816 0-10.752 6.144-17.408 17.92-17.408 30.208s6.656 24.064 17.408 30.208c5.632 3.072 11.264 4.608 17.408 4.608 6.144 0 12.288-1.536 17.408-4.608 10.752-6.144 17.408-17.92 17.408-30.208s-6.656-24.064-17.408-30.208zM692.736 410.624c2.048-3.072 2.56-6.656 2.048-10.24-1.024-3.584-3.072-6.656-6.144-8.192-59.904-37.376-102.4-13.312-122.88 4.608-5.632 5.12-6.144 13.312-1.024 18.944s13.312 6.144 18.944 1.024c31.744-28.16 67.072-16.384 90.624-1.536 3.072 1.536 6.144 2.048 8.704 1.536 4.608-0.512 7.68-3.072 9.728-6.144z"
        p-id="11399" fill="#007BFF"></path>
    <path
        d="M825.344 206.848c-14.336-16.896-30.72-28.16-48.64-34.304C745.472 133.12 708.096 102.4 665.6 80.896c-43.008-21.504-88.576-32.768-136.192-32.768-149.504 0-274.944 105.984-318.976 269.824-45.056 167.936-9.216 262.144 29.184 312.32 34.304 44.544 84.992 72.704 138.24 77.312 11.264 9.216 23.04 17.408 35.328 24.064-16.896 9.216-32.768 25.088-43.52 44.544-10.24 4.608-19.968 9.728-28.672 15.872-23.04 15.36-40.96 34.304-55.296 57.856-15.36 26.112-25.088 57.344-29.696 95.744-0.512 6.144 1.024 12.288 5.12 16.896 4.096 4.608 9.728 7.168 15.872 7.168 10.752 0 19.968-8.192 20.992-18.944 6.656-55.296 24.576-92.16 57.344-117.248 4.608-3.584 9.728-7.168 15.36-10.24 25.088 40.448 29.696 56.832 32.768 68.096v1.024c2.048 6.656 4.096 14.336 9.728 23.04 5.12 8.192 14.336 12.288 23.552 11.264 9.728-1.024 17.408-7.68 20.48-16.384 5.632-14.848 18.432-32.256 35.328-46.592 14.848-12.8 30.208-21.504 38.912-21.504 18.432 0.512 63.488 35.328 75.264 68.608 3.072 9.216 10.752 15.36 20.48 16.384h3.072c8.192 0 15.872-4.096 20.992-11.264 5.632-8.704 8.192-16.384 9.728-23.552v-0.512c3.072-10.752 7.68-27.136 32.256-67.584 19.456 11.776 34.304 26.112 45.568 44.544 13.312 21.504 21.504 48.64 25.6 81.92 1.024 10.752 10.24 18.944 20.992 18.944 6.144 0 11.776-2.56 15.872-7.168 4.096-4.608 6.144-10.752 5.12-16.384-10.24-83.968-45.568-137.216-111.104-168.448-12.8-23.552-32.768-41.984-53.248-49.664 10.752-5.632 21.504-12.288 31.232-19.456 46.592-2.048 91.136-17.408 125.44-44.032 19.968-15.36 36.352-34.304 48.64-56.32 13.824-24.064 22.528-52.224 26.624-83.456 18.944-146.944 0.512-260.096-48.64-317.952zM440.832 846.336c-6.144-13.312-14.336-28.672-25.088-46.592 0 0 0-0.512-0.512-0.512l-0.512-0.512c6.144-10.24 13.312-16.896 17.92-19.968 1.024-0.512 2.048-1.536 3.072-2.048 2.56-1.536 5.12-2.56 6.656-3.072 1.024 1.536 1.536 3.072 2.56 4.608 0.512 1.024 1.024 2.048 1.536 2.56 5.632 10.752 12.8 25.088 25.6 37.376-11.776 8.192-22.016 17.92-31.232 28.16z m136.192-88.064c-10.752 21.504-17.92 33.28-43.008 33.792-25.6-0.512-32.768-12.288-43.52-33.792 11.776 1.536 23.552 2.56 35.84 2.56 16.384 0 34.304-2.56 53.248-7.68-1.024 2.048-2.048 3.584-2.56 5.12z m75.264 40.448c-0.512 0.512-0.512 1.024-1.024 1.536-10.752 17.92-18.944 32.768-25.088 46.08-9.216-10.24-19.456-19.968-30.72-28.16 12.8-12.288 19.968-26.624 25.6-37.376 0.512-1.024 1.024-2.048 1.536-2.56 1.024-1.536 1.536-3.072 2.56-4.608 2.048 0.512 5.12 2.048 8.192 4.096 5.12 3.072 12.8 9.728 18.944 20.992z m6.656-135.68c-10.24 7.68-20.992 14.848-32.768 20.992-40.448 22.528-78.848 30.72-100.352 30.72-34.304 0-66.048-9.216-95.232-26.624-11.776-7.168-22.528-15.36-33.28-25.088-36.864-34.304-58.368-75.776-69.632-104.96-13.312-34.816-20.48-70.144-18.944-97.792 4.096 1.024 11.264 2.048 20.48 2.048 22.016 0 46.08-5.632 73.216-16.896 34.816-14.848 66.56-35.84 101.888-67.584 47.616-43.008 107.008-97.28 174.08-97.28 11.776 0 23.04 1.536 33.28 3.584 4.096 0.512 7.68 1.024 11.776 1.536h1.024c14.848 16.384 18.432 36.352 18.944 117.248v90.112c0 14.336-1.536 28.16-3.584 41.472-11.264 64-50.176 104.96-80.896 128.512z m171.52-142.336c-5.12 36.864-17.92 67.072-38.912 90.112-13.824 15.36-31.232 27.136-51.2 35.84 22.528-29.696 37.888-62.976 45.568-98.816 6.144-34.816 5.632-120.832 5.12-154.112v-13.312c-0.512-38.912-2.56-66.56-8.192-86.528 1.024-1.024-0.512 1.024 0 0 0 0-5.12-17.408-7.68-22.528-5.12-9.728-14.848-19.456-23.552-24.576l-2.048-1.024c-41.472-17.408-81.92-20.48-117.248-8.192-49.664 16.896-92.16 48.64-130.048 80.896-8.192 6.656-15.872 13.824-23.552 20.48-17.92 16.384-35.328 31.744-56.32 44.032-32.256 18.944-62.464 29.184-89.6 29.696-22.016 0.512-22.016 0.512-32.256-1.024-30.72-5.12-35.84 31.232-35.84 31.232-0.512 2.56-1.024 5.12-1.536 8.192-4.096 46.592 11.776 121.344 54.784 187.904-24.576-15.36-52.736-42.496-69.12-90.112-19.456-57.344-17.408-131.072 6.144-219.136C274.432 256.512 312.32 195.584 364.032 153.6c24.064-19.456 50.688-34.304 78.848-44.544 27.648-10.24 56.832-14.848 86.016-14.848 40.96 0 81.92 10.24 118.272 29.184 38.912 20.48 73.216 50.688 100.864 89.6l1.024 1.536h1.536c20.992 1.024 41.984 20.48 57.344 52.736 15.872 34.816 25.088 82.432 27.136 139.776 8.704 52.224-4.608 113.664-4.608 113.664z"
        p-id="11400" fill="#007BFF"></path>
</svg>